<svg t="1720518648720" class="icon" viewBox="0 0 1024 1024" version="1.1" xmlns="http://www.w3.org/2000/svg" p-id="5626" width="40" height="40"><path d="M1013.7088 719.7696c6.8608 7.8848 10.2912 17.0752 10.2912 27.5712v236.4416c0 11.3664-3.4304 20.7872-10.2912 28.2368-6.8608 7.424-15.2576 11.1616-25.1648 11.1616H782.592c-9.1648 0-17.152-3.7376-24.0384-11.1616-6.8608-7.424-10.2912-16.8704-10.2912-28.2368v-236.4416c0-6.9888 1.536-13.568 4.5824-19.6864 3.072-6.144 7.2448-10.9312 12.5696-14.4384a30.72 30.72 0 0 1 17.1776-5.2736h77.824V551.68a30.72 30.72 0 0 0-3.456-14.464 28.544 28.544 0 0 0-9.1392-10.496 21.7088 21.7088 0 0 0-12.5952-3.9424H543.4624v185.1904h77.824c9.1392 0 17.152 3.9424 24.0128 11.8272 6.8608 7.8848 10.2912 17.0752 10.2912 27.5712v236.4416c0 6.9888-1.536 13.568-4.5824 19.712-3.0464 6.1184-7.2448 10.9312-12.5952 14.4384a30.72 30.72 0 0 1-17.152 5.248h-205.952a30.72 30.72 0 0 1-17.152-5.248 40.6016 40.6016 0 0 1-13.1584-14.464 39.68 39.68 0 0 1-5.1456-19.712v-236.416c0-10.496 3.4304-19.6864 10.2912-27.5712 6.8608-7.8848 15.2576-11.8272 25.1648-11.8272h76.672V522.752H188.7744a23.9104 23.9104 0 0 0-18.8672 8.5504 29.952 29.952 0 0 0-7.424 20.352v156.288h77.7984c9.9072 0 18.0992 3.9424 24.576 11.8272 6.4768 7.8848 9.728 17.0752 9.728 27.5712v236.4416c0 11.3664-3.2256 20.7872-9.728 28.2368-6.4768 7.424-14.6688 11.1616-24.576 11.1616H34.304c-3.84 0-7.4496-0.6656-10.88-1.9712a32.7936 32.7936 0 0 1-16.5888-13.7984 41.472 41.472 0 0 1-5.12-11.1616A44.544 44.544 0 0 1 0 983.808v-236.4416c0-3.4816 0.384-6.9888 1.152-10.496 0.64-3.2256 1.792-6.3232 3.4304-9.216 1.536-2.6112 3.4304-5.2224 5.7088-7.8592 2.304-2.6368 4.5824-4.8128 6.8608-6.5536a23.808 23.808 0 0 1 8.0128-3.9424c3.072-0.896 6.1184-1.3312 9.1648-1.3312H112.128V492.544c0-7.8848 2.4832-14.6688 7.424-20.352 4.9664-5.7088 10.88-8.5504 17.7408-8.5504h354.688v-147.0976h-76.672c-9.9072 0-18.304-3.9168-25.1648-11.8016a40.704 40.704 0 0 1-10.2912-27.5968V40.704c0-11.3664 3.4304-20.992 10.2912-28.8768 6.8608-7.8848 15.2576-11.8272 25.1648-11.8272h205.952c6.1184 0 11.8272 1.9712 17.152 5.888 5.376 3.968 9.6768 9.1648 12.5952 15.104 3.072 6.144 4.608 12.7232 4.608 19.712v236.4416c0 10.496-3.456 19.712-10.3168 27.5712-6.8864 7.8848-14.8736 11.8272-24.0384 11.8272H543.488v147.0976h342.0928c7.6288 0 13.9264 2.8416 18.8928 8.5504 4.9408 5.6832 7.424 12.4672 7.424 20.352v215.3984h76.672c9.9072 0 18.304 3.9424 25.1648 11.8272z" p-id="5627"></path></svg>
