<svg t="1720519504426" class="icon" viewBox="0 0 1024 1024" version="1.1" xmlns="http://www.w3.org/2000/svg" p-id="7556" width="40" height="40"><path d="M669.538462 157.538462a39.384615 39.384615 0 0 1 39.384615 39.384615v157.538461a39.384615 39.384615 0 0 1-39.384615 39.384616h-216.615385l-0.039385 157.538461h298.771693a59.076923 59.076923 0 1 1 0 39.384616H452.923077l0.039385 177.230769h101.80923a59.076923 59.076923 0 1 1 0 39.384615H433.230769a19.692308 19.692308 0 0 1-19.377231-16.147692L413.538462 787.692308V393.846154H196.923077a39.384615 39.384615 0 0 1-39.384615-39.384616V196.923077a39.384615 39.384615 0 0 1 39.384615-39.384615h472.615385z m-59.076924 610.461538a19.692308 19.692308 0 1 0 0 39.384615 19.692308 19.692308 0 0 0 0-39.384615z m196.923077-216.615385a19.692308 19.692308 0 1 0 0 39.384616 19.692308 19.692308 0 0 0 0-39.384616zM669.538462 196.923077H196.923077v157.538461h472.615385V196.923077z" fill="#333333" p-id="7557"></path></svg>
